<svg width="26" height="25" viewBox="0 0 26 25" fill="none" xmlns="http://www.w3.org/2000/svg">
<path d="M25.3418 12.5C25.3418 19.1274 19.9692 24.5 13.3418 24.5C6.71438 24.5 1.3418 19.1274 1.3418 12.5C1.3418 5.87258 6.71438 0.5 13.3418 0.5C19.9692 0.5 25.3418 5.87258 25.3418 12.5Z" fill="#00BF63"/>
<path d="M13.3418 17.3L18.1418 12.5M18.1418 12.5L13.3418 7.7M18.1418 12.5H8.5418M25.3418 12.5C25.3418 19.1274 19.9692 24.5 13.3418 24.5C6.71438 24.5 1.3418 19.1274 1.3418 12.5C1.3418 5.87258 6.71438 0.5 13.3418 0.5C19.9692 0.5 25.3418 5.87258 25.3418 12.5Z" stroke="white" stroke-linecap="round" stroke-linejoin="round"/>
</svg>
