<svg width="101" height="22" viewBox="0 0 101 22" fill="none" xmlns="http://www.w3.org/2000/svg">
<path d="M0.05 19C0.05 18.425 0.05 17.8675 0.05 17.3275C0.05 16.7875 0.05 16.1825 0.05 15.5125V11.8825C0.05 11.1925 0.05 10.57 0.05 10.015C0.05 9.46 0.05 8.89 0.05 8.305C0.485 8.305 1.0675 8.305 1.7975 8.305C2.5325 8.305 3.38 8.305 4.34 8.305C5.205 8.305 5.9275 8.4125 6.5075 8.6275C7.0925 8.8425 7.53 9.1975 7.82 9.6925C8.115 10.1825 8.2625 10.8425 8.2625 11.6725C8.2625 12.3775 8.1375 13 7.8875 13.54C7.6375 14.075 7.2325 14.495 6.6725 14.8C6.1125 15.1 5.3725 15.25 4.4525 15.25C4.2075 15.25 3.945 15.25 3.665 15.25C3.39 15.25 3.12 15.25 2.855 15.25C2.59 15.25 2.3625 15.25 2.1725 15.25V13.375H3.89C4.32 13.375 4.6725 13.3175 4.9475 13.2025C5.2225 13.0875 5.425 12.91 5.555 12.67C5.69 12.425 5.7575 12.11 5.7575 11.725C5.7575 11.42 5.71 11.17 5.615 10.975C5.525 10.78 5.4025 10.63 5.2475 10.525C5.0925 10.42 4.92 10.3475 4.73 10.3075C4.545 10.2625 4.3575 10.24 4.1675 10.24H1.3025L2.48 8.695C2.48 9.28 2.48 9.85 2.48 10.405C2.48 10.96 2.48 11.5825 2.48 12.2725V15.5125C2.48 16.1825 2.48 16.7875 2.48 17.3275C2.48 17.8675 2.48 18.425 2.48 19H0.05ZM11.1412 19C11.1412 18.425 11.1412 17.8675 11.1412 17.3275C11.1412 16.7875 11.1412 16.1825 11.1412 15.5125V11.8825C11.1412 11.1925 11.1412 10.57 11.1412 10.015C11.1412 9.46 11.1412 8.89 11.1412 8.305C11.4662 8.305 11.8487 8.305 12.2887 8.305C12.7337 8.305 13.2087 8.305 13.7137 8.305C14.2187 8.305 14.7287 8.305 15.2437 8.305C16.1137 8.305 16.8487 8.4025 17.4487 8.5975C18.0537 8.7875 18.5112 9.1075 18.8212 9.5575C19.1362 10.0075 19.2937 10.62 19.2937 11.395C19.2937 12.01 19.1712 12.5625 18.9262 13.0525C18.6862 13.5425 18.2987 13.93 17.7637 14.215C17.2287 14.5 16.5287 14.6425 15.6637 14.6425L16.6162 13.7425L18.0712 15.8875C18.2962 16.2175 18.5362 16.5725 18.7912 16.9525C19.0462 17.3275 19.2937 17.695 19.5337 18.055C19.7787 18.41 19.9937 18.725 20.1787 19H17.3812C17.1112 18.58 16.8512 18.1775 16.6012 17.7925C16.3512 17.4075 16.1087 17.0325 15.8737 16.6675L14.1412 13.9375L15.6037 15.055H13.1212V13.2925H14.9062C15.3062 13.2925 15.6412 13.245 15.9112 13.15C16.1862 13.05 16.3937 12.8825 16.5337 12.6475C16.6737 12.4125 16.7437 12.09 16.7437 11.68C16.7437 11.375 16.6987 11.13 16.6087 10.945C16.5187 10.755 16.3962 10.6075 16.2412 10.5025C16.0912 10.3975 15.9212 10.3275 15.7312 10.2925C15.5462 10.2575 15.3587 10.24 15.1687 10.24H11.8087L13.5637 8.695C13.5637 9.3 13.5637 9.88 13.5637 10.435C13.5637 10.985 13.5637 11.5975 13.5637 12.2725V15.5125C13.5637 16.1825 13.5637 16.7875 13.5637 17.3275C13.5637 17.8675 13.5637 18.425 13.5637 19H11.1412ZM27.6329 19.2025C26.6679 19.2025 25.8329 19.055 25.1279 18.76C24.4229 18.46 23.8429 18.0525 23.3879 17.5375C22.9329 17.0175 22.5929 16.425 22.3679 15.76C22.1479 15.095 22.0379 14.395 22.0379 13.66C22.0379 12.62 22.2429 11.68 22.6529 10.84C23.0679 9.995 23.6829 9.325 24.4979 8.83C25.3179 8.335 26.3404 8.0875 27.5654 8.0875C28.4954 8.0875 29.3079 8.2325 30.0029 8.5225C30.6979 8.8075 31.2754 9.205 31.7354 9.715C32.2004 10.225 32.5479 10.815 32.7779 11.485C33.0079 12.155 33.1229 12.875 33.1229 13.645C33.1229 14.71 32.9104 15.66 32.4854 16.495C32.0654 17.33 31.4479 17.99 30.6329 18.475C29.8179 18.96 28.8179 19.2025 27.6329 19.2025ZM27.5954 17.17C28.0904 17.17 28.5229 17.0775 28.8929 16.8925C29.2629 16.7025 29.5704 16.4425 29.8154 16.1125C30.0604 15.7825 30.2429 15.4075 30.3629 14.9875C30.4879 14.5625 30.5504 14.115 30.5504 13.645C30.5504 13.15 30.4829 12.69 30.3479 12.265C30.2179 11.835 30.0254 11.46 29.7704 11.14C29.5204 10.82 29.2129 10.57 28.8479 10.39C28.4829 10.21 28.0654 10.12 27.5954 10.12C27.1104 10.12 26.6804 10.2125 26.3054 10.3975C25.9354 10.5825 25.6254 10.84 25.3754 11.17C25.1254 11.495 24.9354 11.87 24.8054 12.295C24.6754 12.72 24.6104 13.17 24.6104 13.645C24.6104 14.12 24.6729 14.57 24.7979 14.995C24.9229 15.415 25.1079 15.79 25.3529 16.12C25.6029 16.445 25.9129 16.7025 26.2829 16.8925C26.6579 17.0775 27.0954 17.17 27.5954 17.17ZM35.0797 21.325C35.3447 20.975 35.5622 20.6175 35.7322 20.2525C35.9072 19.8925 36.0372 19.5125 36.1222 19.1125C36.2122 18.7125 36.2572 18.28 36.2572 17.815V14.23V11.8825C36.2572 11.1925 36.2572 10.57 36.2572 10.015C36.2572 9.46 36.2572 8.89 36.2572 8.305H38.7322C38.7322 8.89 38.7322 9.46 38.7322 10.015C38.7322 10.57 38.7322 11.1925 38.7322 11.8825V14.05C38.7322 14.735 38.7322 15.405 38.7322 16.06C38.7322 16.715 38.7322 17.35 38.7322 17.965C38.7322 18.38 38.6972 18.7575 38.6272 19.0975C38.5622 19.4375 38.4697 19.7425 38.3497 20.0125C38.2297 20.2825 38.0872 20.525 37.9222 20.74C37.7622 20.955 37.5872 21.15 37.3972 21.325H35.0797Z" fill="#1B1B1B"/>
<path d="M43.0932 19C43.0932 18.0033 43.0932 17.037 43.0932 16.101C43.0932 15.165 43.0932 14.1163 43.0932 12.955V6.663C43.0932 5.467 43.0932 4.388 43.0932 3.426C43.0932 2.464 43.0932 1.476 43.0932 0.461998H47.4612C47.4612 1.476 47.4612 2.464 47.4612 3.426C47.4612 4.388 47.4612 5.467 47.4612 6.663V12.955C47.4612 14.1163 47.4612 15.165 47.4612 16.101C47.4612 17.037 47.4612 18.0033 47.4612 19H43.0932ZM51.191 19C51.191 18.0033 51.191 17.037 51.191 16.101C51.191 15.165 51.191 14.1163 51.191 12.955V6.663C51.191 5.467 51.191 4.388 51.191 3.426C51.191 2.464 51.191 1.476 51.191 0.461998H63.32V4.024C62.5227 4.024 61.6647 4.024 60.746 4.024C59.836 4.024 58.7613 4.024 57.522 4.024H53.648L55.377 1.138C55.377 2.152 55.377 3.14 55.377 4.102C55.377 5.064 55.377 6.143 55.377 7.339V12.955C55.377 14.1163 55.377 15.165 55.377 16.101C55.377 17.037 55.377 18.0033 55.377 19H51.191ZM54.298 11.629V8.197H57.6C58.7353 8.197 59.7103 8.197 60.525 8.197C61.3483 8.197 62.1413 8.197 62.904 8.197V11.629C62.098 11.629 61.2877 11.629 60.473 11.629C59.6583 11.629 58.6963 11.629 57.587 11.629H54.298ZM66.1839 19C66.1839 18.0033 66.1839 17.037 66.1839 16.101C66.1839 15.165 66.1839 14.1163 66.1839 12.955V6.663C66.1839 5.467 66.1839 4.388 66.1839 3.426C66.1839 2.464 66.1839 1.476 66.1839 0.461998C66.7472 0.461998 67.4102 0.461998 68.1729 0.461998C68.9442 0.461998 69.7675 0.461998 70.6429 0.461998C71.5182 0.461998 72.4022 0.461998 73.2949 0.461998C74.8029 0.461998 76.0769 0.630999 77.1169 0.968999C78.1655 1.29833 78.9585 1.853 79.4959 2.633C80.0419 3.413 80.3149 4.47467 80.3149 5.818C80.3149 6.884 80.1025 7.84167 79.6779 8.691C79.2619 9.54033 78.5902 10.212 77.6629 10.706C76.7355 11.2 75.5222 11.447 74.0229 11.447L75.6739 9.887L78.1959 13.605C78.5859 14.177 79.0019 14.7923 79.4439 15.451C79.8859 16.101 80.3149 16.738 80.7309 17.362C81.1555 17.9773 81.5282 18.5233 81.8489 19H76.9999C76.5319 18.272 76.0812 17.5743 75.6479 16.907C75.2145 16.2397 74.7942 15.5897 74.3869 14.957L71.3839 10.225L73.9189 12.162H69.6159V9.107H72.7099C73.4032 9.107 73.9839 9.02467 74.4519 8.86C74.9285 8.68667 75.2882 8.39633 75.5309 7.989C75.7735 7.58167 75.8949 7.02267 75.8949 6.312C75.8949 5.78333 75.8169 5.35867 75.6609 5.038C75.5049 4.70867 75.2925 4.453 75.0239 4.271C74.7639 4.089 74.4692 3.96767 74.1399 3.907C73.8192 3.84633 73.4942 3.816 73.1649 3.816H67.3409L70.3829 1.138C70.3829 2.18667 70.3829 3.192 70.3829 4.154C70.3829 5.10733 70.3829 6.169 70.3829 7.339V12.955C70.3829 14.1163 70.3829 15.165 70.3829 16.101C70.3829 17.037 70.3829 18.0033 70.3829 19H66.1839ZM84.1734 19C84.1734 18.0033 84.1734 17.037 84.1734 16.101C84.1734 15.165 84.1734 14.1163 84.1734 12.955V6.663C84.1734 5.467 84.1734 4.388 84.1734 3.426C84.1734 2.464 84.1734 1.476 84.1734 0.461998H87.9044C88.7711 1.72733 89.5901 2.92333 90.3614 4.05C91.1328 5.168 91.9041 6.29033 92.6754 7.417L95.6914 11.785H96.0034V6.663C96.0034 5.467 96.0034 4.388 96.0034 3.426C96.0034 2.464 96.0034 1.476 96.0034 0.461998H100.02C100.02 1.476 100.02 2.464 100.02 3.426C100.02 4.388 100.02 5.467 100.02 6.663V12.955C100.02 14.1163 100.02 15.165 100.02 16.101C100.02 17.037 100.02 18.0033 100.02 19H96.3284C95.6178 17.96 94.8724 16.8767 94.0924 15.75C93.3124 14.6233 92.4588 13.3927 91.5314 12.058L88.4764 7.638H88.1774V12.955C88.1774 14.1163 88.1774 15.165 88.1774 16.101C88.1774 17.037 88.1774 18.0033 88.1774 19H84.1734Z" fill="#00BF63"/>
</svg>
