<svg width="347" height="252" viewBox="0 0 347 252" fill="none" xmlns="http://www.w3.org/2000/svg">
<path d="M0.241262 252C0.241262 244.201 0.241262 236.64 0.241262 229.316C0.241262 221.992 0.241262 213.786 0.241262 204.699V155.465C0.241262 146.106 0.241262 137.663 0.241262 130.135C0.241262 122.608 0.241262 114.877 0.241262 106.943C6.14121 106.943 14.0417 106.943 23.9428 106.943C33.9117 106.943 45.4064 106.943 58.427 106.943C70.1591 106.943 79.9584 108.401 87.825 111.317C95.7594 114.233 101.693 119.048 105.627 125.761C109.628 132.407 111.628 141.359 111.628 152.616C111.628 162.178 109.933 170.621 106.542 177.945C103.151 185.202 97.6583 190.898 90.0629 195.035C82.4676 199.104 72.4309 201.138 59.9528 201.138C56.6299 201.138 53.0696 201.138 49.2719 201.138C45.542 201.138 41.88 201.138 38.2858 201.138C34.6916 201.138 31.6059 201.138 29.029 201.138V175.708H52.3236C58.1557 175.708 62.9367 174.928 66.6666 173.368C70.3964 171.808 73.143 169.401 74.9062 166.146C76.7372 162.823 77.6527 158.55 77.6527 153.328C77.6527 149.192 77.0084 145.801 75.72 143.156C74.4993 140.511 72.8378 138.477 70.7355 137.053C68.6332 135.629 66.2936 134.645 63.7166 134.103C61.2074 133.492 58.6643 133.187 56.0874 133.187H17.2291L33.1996 112.232C33.1996 120.167 33.1996 127.898 33.1996 135.425C33.1996 142.953 33.1996 151.396 33.1996 160.754V204.699C33.1996 213.786 33.1996 221.992 33.1996 229.316C33.1996 236.64 33.1996 244.201 33.1996 252H0.241262Z" fill="#1B1B1B"/>
<path d="M110.471 252C110.471 238.482 110.471 225.376 110.471 212.681C110.471 199.985 110.471 185.762 110.471 170.011V84.6719C110.471 68.4505 110.471 53.8159 110.471 40.7682C110.471 27.7205 110.471 14.3201 110.471 0.567105H169.715C169.715 14.3201 169.715 27.7205 169.715 40.7682C169.715 53.8159 169.715 68.4505 169.715 84.6719V170.011C169.715 185.762 169.715 199.985 169.715 212.681C169.715 225.376 169.715 238.482 169.715 252H110.471ZM181.512 252C181.512 238.482 181.512 225.376 181.512 212.681C181.512 199.985 181.512 185.762 181.512 170.011V84.6719C181.512 68.4505 181.512 53.8159 181.512 40.7682C181.512 27.7205 181.512 14.3201 181.512 0.567105H346.019V48.8789C335.205 48.8789 323.568 48.8789 311.108 48.8789C298.765 48.8789 284.189 48.8789 267.38 48.8789H214.837L238.287 9.73577C238.287 23.4888 238.287 36.8891 238.287 49.9368C238.287 62.9845 238.287 77.6191 238.287 93.8406V170.011C238.287 185.762 238.287 199.985 238.287 212.681C238.287 225.376 238.287 238.482 238.287 252H181.512ZM223.653 152.026V105.478H268.438C283.837 105.478 297.061 105.478 308.11 105.478C319.277 105.478 330.033 105.478 340.377 105.478V152.026C329.445 152.026 318.454 152.026 307.405 152.026C296.355 152.026 283.308 152.026 268.262 152.026H223.653Z" fill="#00BF63"/>
</svg>
